<?xml version="1.0" encoding="utf-8"?>
<!-- Generator: Adobe Illustrator 26.0.3, SVG Export Plug-In . SVG Version: 6.00 Build 0)  -->
<svg version="1.0" id="katman_1" xmlns="http://www.w3.org/2000/svg" xmlns:xlink="http://www.w3.org/1999/xlink" x="0px" y="0px"
	 viewBox="0 0 238 160" style="enable-background:new 0 0 238 160;" xml:space="preserve">
<style type="text/css">
	.st0{fill-rule:evenodd;clip-rule:evenodd;fill:#13B5EA;}
	.st1{fill-rule:evenodd;clip-rule:evenodd;fill:#004B8D;}
	.st2{filter:url(#Adobe_OpacityMaskFilter);}
	.st3{fill-rule:evenodd;clip-rule:evenodd;fill:#FFFFFF;}
	
		.st4{mask:url(#mask-2_00000001647735247951646390000012343331958746029479_);fill:url(#Rectangle_00000140698513899217851100000017484970511171187890_);}
</style>
<g id="Page-1">
	<g id="_x30_8-Nearmap-Design-System" transform="translate(-145.000000, -6590.000000)">
		<g id="Nearmap-logo-blue" transform="translate(145.000000, 6590.000000)">
			<g>
				<g id="Group-15" transform="translate(0.000000, 20.212766)">
					<path id="Fill-1" class="st0" d="M35.3,55.6h4.1l-0.2,1.7c0.8-0.7,1.6-1.3,2.4-1.6c0.8-0.4,1.7-0.5,2.5-0.5
						c1.5,0,2.6,0.5,3.6,1.4c0.5,0.5,0.8,1,1,1.6c0.2,0.6,0.3,1.2,0.3,2c0,0.3,0,0.8-0.1,1.3c0,0.5-0.1,1.1-0.2,1.8l-1.3,9.6h-4.1
						l1.3-9.4c0.1-0.5,0.1-0.9,0.1-1.3c0-0.4,0-0.7,0-0.9c0-0.7-0.2-1.2-0.6-1.6c-0.2-0.2-0.4-0.3-0.7-0.4C43.3,59.1,43,59,42.6,59
						c-0.7,0-1.4,0.2-2.1,0.7c-0.7,0.5-1.2,1.2-1.6,2c-0.2,0.4-0.4,1.1-0.5,1.9c-0.2,0.8-0.3,1.8-0.5,3l-0.8,6.1H33L35.3,55.6z"/>
					<path id="Fill-3" class="st0" d="M67.7,69.6c-0.8,1.1-1.9,2-3.2,2.6c-0.7,0.3-1.4,0.6-2.1,0.7c-0.7,0.2-1.5,0.2-2.3,0.2
						c-2.6,0-4.6-0.7-6.1-2.2c-0.7-0.7-1.3-1.6-1.7-2.6c-0.4-1-0.6-2.1-0.6-3.3c0-2.8,0.9-5.1,2.8-7.1c0.9-1,1.9-1.7,3.1-2.2
						c1.1-0.5,2.3-0.7,3.6-0.7c1.6,0,3,0.4,4.2,1.1c1.2,0.7,2.2,1.7,2.9,3.1c0.4,0.7,0.6,1.4,0.8,2.1c0.2,0.7,0.3,1.5,0.3,2.3
						c0,0.2,0,0.5,0,0.8c0,0.3-0.1,0.6-0.1,0.9H55.8c0,1.2,0.4,2.1,1.2,2.8c0.4,0.4,0.8,0.6,1.3,0.8c0.5,0.2,1.1,0.3,1.7,0.3
						c0.8,0,1.5-0.1,2.2-0.4c0.7-0.3,1.3-0.7,1.9-1.2L67.7,69.6z M65.2,62.3c-0.3-1-0.8-1.8-1.5-2.4c-0.4-0.3-0.8-0.5-1.2-0.6
						c-0.4-0.1-0.9-0.2-1.4-0.2c-1,0-1.9,0.3-2.7,0.8c-0.4,0.3-0.8,0.6-1.1,1c-0.3,0.4-0.6,0.8-0.8,1.4H65.2z"/>
					<path id="Fill-5" class="st0" d="M85.9,55.6h4.1l-2.3,17.1h-4.1l0.2-1.8c-0.9,0.8-1.7,1.4-2.5,1.8c-0.4,0.2-0.8,0.3-1.2,0.4
						s-0.9,0.1-1.4,0.1c-2.2,0-4-0.8-5.3-2.5c-0.7-0.8-1.2-1.7-1.5-2.7c-0.3-1-0.5-2-0.5-3.1c0-1.7,0.4-3.3,1.3-4.8
						c0.8-1.5,2-2.7,3.4-3.6c0.7-0.4,1.4-0.7,2.2-1c0.7-0.2,1.5-0.3,2.3-0.3c1,0,2,0.2,2.9,0.7c0.4,0.2,0.8,0.5,1.2,0.9
						c0.4,0.4,0.7,0.8,1,1.2L85.9,55.6z M82.4,68.7c0.8-0.5,1.4-1.2,1.9-2.2c0.5-1,0.8-2,0.8-3c0-1.4-0.4-2.5-1.2-3.3
						c-0.4-0.4-0.8-0.7-1.3-0.9c-0.5-0.2-1.1-0.3-1.7-0.3c-1.5,0-2.7,0.6-3.7,1.7c-0.5,0.6-0.9,1.2-1.2,1.9
						c-0.3,0.7-0.4,1.5-0.4,2.4c0,1.3,0.4,2.4,1.2,3.2c0.4,0.4,0.8,0.7,1.3,0.9c0.5,0.2,1.1,0.3,1.7,0.3
						C80.8,69.4,81.6,69.2,82.4,68.7z"/>
					<path id="Fill-7" class="st0" d="M93,55.6h3.7l-0.3,2.3c0.6-0.9,1.2-1.6,1.8-2.1c0.7-0.5,1.4-0.7,2.2-0.7
						c0.4,0,0.8,0.1,1.2,0.3l-1.5,3.8c-0.2-0.1-0.3-0.1-0.4-0.1c-0.1,0-0.2,0-0.3,0c-0.8,0-1.5,0.5-2.2,1.4
						c-0.3,0.5-0.6,1.2-0.8,2.2c-0.3,1-0.5,2.2-0.7,3.6l-0.8,6.4h-4.1L93,55.6z"/>
					<path id="Fill-9" class="st1" d="M103.5,55.6h4.1l-0.3,1.9c0.7-0.8,1.5-1.4,2.4-1.7c0.8-0.4,1.7-0.6,2.6-0.6
						c0.8,0,1.5,0.1,2.1,0.4c0.7,0.3,1.2,0.6,1.6,1c0.2,0.2,0.4,0.4,0.6,0.7c0.2,0.3,0.3,0.6,0.5,1c0.8-1,1.7-1.8,2.7-2.3
						c0.5-0.3,1.1-0.5,1.6-0.6c0.5-0.1,1.1-0.2,1.7-0.2c1.4,0,2.6,0.5,3.5,1.4c0.5,0.5,0.8,1,1,1.7c0.2,0.6,0.3,1.3,0.3,2.1
						c0,0.3,0,0.6,0,1c0,0.4-0.1,0.8-0.1,1.2l-1.4,10.2h-4.1l1.2-8.8c0.1-0.6,0.1-1.1,0.2-1.5c0-0.4,0.1-0.7,0.1-0.9
						c0-0.8-0.2-1.4-0.6-1.8c-0.2-0.2-0.4-0.4-0.7-0.5c-0.3-0.1-0.6-0.2-1-0.2c-0.7,0-1.4,0.3-2.1,0.8c-0.7,0.5-1.3,1.2-1.6,2
						c-0.2,0.4-0.4,1-0.5,1.7c-0.2,0.7-0.3,1.6-0.4,2.6l-0.9,6.5h-4.1l1.2-9.3c0.1-0.4,0.1-0.7,0.1-1.1s0-0.6,0-0.9
						c0-0.7-0.2-1.3-0.6-1.8c-0.2-0.2-0.5-0.4-0.7-0.5c-0.3-0.1-0.6-0.2-0.9-0.2c-0.7,0-1.3,0.2-2,0.7c-0.7,0.5-1.2,1.1-1.6,1.9
						c-0.2,0.4-0.4,0.9-0.5,1.5c-0.2,0.6-0.3,1.3-0.4,2.2l-0.9,7.4h-4.1L103.5,55.6z"/>
					<path id="Fill-11" class="st1" d="M144.3,55.6h4.1l-2.3,17.1H142l0.2-1.8c-0.9,0.8-1.7,1.4-2.5,1.8c-0.4,0.2-0.8,0.3-1.2,0.4
						c-0.4,0.1-0.9,0.1-1.4,0.1c-2.2,0-4-0.8-5.3-2.5c-0.7-0.8-1.2-1.7-1.5-2.7c-0.3-1-0.5-2-0.5-3.1c0-1.7,0.4-3.3,1.3-4.8
						c0.8-1.5,2-2.7,3.4-3.6c0.7-0.4,1.4-0.7,2.2-1c0.7-0.2,1.5-0.3,2.3-0.3c1,0,2,0.2,2.9,0.7c0.4,0.2,0.8,0.5,1.2,0.9
						c0.4,0.4,0.7,0.8,1,1.2L144.3,55.6z M140.7,68.7c0.8-0.5,1.4-1.2,1.9-2.2c0.5-1,0.8-2,0.8-3c0-1.4-0.4-2.5-1.2-3.3
						c-0.4-0.4-0.8-0.7-1.3-0.9c-0.5-0.2-1.1-0.3-1.7-0.3c-1.5,0-2.7,0.6-3.8,1.7c-0.5,0.6-0.9,1.2-1.2,1.9
						c-0.3,0.7-0.4,1.5-0.4,2.4c0,1.3,0.4,2.4,1.2,3.2c0.4,0.4,0.8,0.7,1.3,0.9c0.5,0.2,1.1,0.3,1.7,0.3
						C139.1,69.4,140,69.2,140.7,68.7z"/>
					<path id="Fill-13" class="st1" d="M151.7,84.8l-4.1-0.1l3.9-29.2h4.1l-0.2,1.9c0.9-0.9,1.7-1.5,2.5-1.8
						c0.4-0.2,0.8-0.3,1.2-0.4c0.4-0.1,0.9-0.1,1.4-0.1c2.2,0,4,0.8,5.3,2.5c0.6,0.8,1.1,1.7,1.5,2.7c0.3,1,0.5,2,0.5,3.1
						c0,1.7-0.4,3.3-1.2,4.8c-0.8,1.5-2,2.7-3.4,3.6c-0.7,0.4-1.4,0.7-2.2,1c-0.7,0.2-1.5,0.3-2.2,0.3c-1,0-2-0.2-2.9-0.7
						c-0.4-0.2-0.8-0.5-1.2-0.9c-0.4-0.4-0.7-0.8-1-1.2L151.7,84.8z M156.7,59.6c-0.8,0.5-1.4,1.2-1.9,2.2c-0.5,1-0.8,2-0.8,3
						c0,1.4,0.4,2.4,1.1,3.3c0.4,0.4,0.8,0.7,1.3,0.9c0.5,0.2,1.1,0.3,1.7,0.3c1.5,0,2.7-0.6,3.7-1.7c0.5-0.6,0.9-1.2,1.1-1.9
						c0.3-0.7,0.4-1.5,0.4-2.4c0-1.3-0.4-2.4-1.1-3.3c-0.4-0.4-0.8-0.7-1.3-0.9c-0.5-0.2-1-0.3-1.6-0.3
						C158.3,58.9,157.5,59.1,156.7,59.6z"/>
				</g>
				<g id="arrow" transform="translate(136.962963, 0.000000)">
					<defs>
						<filter id="Adobe_OpacityMaskFilter" filterUnits="userSpaceOnUse" x="31.9" y="53.3" width="36.1" height="39.6">
							<feColorMatrix  type="matrix" values="1 0 0 0 0  0 1 0 0 0  0 0 1 0 0  0 0 0 1 0"/>
						</filter>
					</defs>
					
						<mask maskUnits="userSpaceOnUse" x="31.9" y="53.3" width="36.1" height="39.6" id="mask-2_00000001647735247951646390000012343331958746029479_">
						<g class="st2">
							<path id="path-1_00000072277264039817491190000002920308962273656450_" class="st3" d="M66.2,55c0.8,0,1.1,0.5,1.2,1.2v0.1
								c0,0.2,0,0.4-0.1,0.5c-0.3,1.2-1.5,2.4-2.7,1.4c-0.9-0.8,0-3,1.1-3.2C65.9,55,66,55,66.2,55z M62.6,63.7c0.1-1.8,1-2.7,2-2.7
								c0.1,0,0.2,0,0.3,0c2,0.4,0.9,4.6-1.1,4.2C63.1,65.1,62.6,64.5,62.6,63.7z M61.9,57.9c0.1,0,0.1,0,0.2,0c1,0,1.2,0.9,1,1.8
								c-0.4,1.2-1.6,2.4-2.5,1.3c-0.2-0.2-0.2-0.5-0.2-0.8c0-0.9,0.7-2,1.4-2.2l0,0C61.8,57.9,61.8,57.9,61.9,57.9z M59.3,58
								c-1.6-0.3-0.5-2.7,0.7-2.7c0.2,0,0.4,0,0.6,0.2C61.4,56,60.3,58.1,59.3,58z M53.8,56.5c0.2-0.6,0.8-1.1,1.4-1.1
								c0.2,0,0.4,0.1,0.6,0.2c0.7,0.6-0.7,2.9-1.8,2.3C53.6,57.5,53.6,57,53.8,56.5z M55.5,61c-1-0.6-0.1-2.8,1.1-2.8
								c0.2,0,0.5,0.1,0.7,0.3C58.1,59.4,56.6,61.7,55.5,61z M57.6,61.1c0.2,0,0.3-0.1,0.5-0.1c1,0,1.3,1,1,1.9
								c-0.3,1.2-1.4,2.5-2.5,1.7v0C55.3,63.7,56.4,61.4,57.6,61.1z M59.4,65.1c0.2-0.1,0.5-0.1,0.7-0.1c1,0,1.3,1.1,1,2.2
								c-0.3,1.5-1.4,2.9-2.7,1.8C57.3,67.8,58.1,65.7,59.4,65.1z M62.4,70.6c0.1,0,0.2,0,0.3,0c1.2,0,1.7,1.3,1.6,2.5
								c-0.1,1.4-1,2.7-2.5,2.5C59.8,75.3,60.2,70.9,62.4,70.6z M59.6,81.4c0.2,0,0.4-0.1,0.6-0.1c3.3,0,3.2,7.8-0.1,7.8
								C56.9,89.2,56.7,82.1,59.6,81.4z M57.3,73.9c0.1,0,0.3,0,0.4,0c1.3,0,1.9,1.5,1.8,3c-0.1,1.6-1,3.2-2.5,3
								C54.4,79.5,55.1,74.4,57.3,73.9z M55.6,68.3c0.1,0,0.1,0,0.2,0c1.1,0,1.5,1.2,1.3,2.4c-0.2,1.3-1,2.5-2.2,2.4
								C52.7,72.7,53.6,68.5,55.6,68.3z M53.1,68c-1.4-0.4-0.6-3.8,1.1-3.8c0.2,0,0.4,0,0.6,0.2C56.2,65.3,54.9,68.6,53.1,68z
								 M52.8,61c0.1,0,0.2,0,0.3,0c0.9,0,1,0.8,0.7,1.7c-0.4,1.1-1.4,2.1-2.2,1.4C50.8,63.2,51.8,61.2,52.8,61z M50.7,60.7
								C50,60.2,50.9,58,52.1,58c0.1,0,0.2,0,0.4,0.1C53.6,58.7,52,61.5,50.7,60.7z M49.9,58.1c-0.8-0.6,0.4-2.5,1.4-2.5
								c0.1,0,0.3,0,0.4,0.1C52.5,56.4,50.9,58.5,49.9,58.1z M48.8,63.9c0.2-0.3,0.6-0.5,0.9-0.5c0.1,0,0.3,0,0.5,0.1
								c0.6,0.3,0.5,1.2,0.1,2c-0.4,0.8-1.1,1.4-1.9,1C47.9,65.9,48.1,64.6,48.8,63.9z M49.5,71c-1.2-0.6-0.3-3.5,1.2-3.5
								c0.1,0,0.2,0,0.3,0C52.2,67.9,51.2,71.6,49.5,71z M50.9,72.4c0.2-0.1,0.3-0.1,0.5-0.1c0.9,0,1.1,1,0.9,2.1
								c-0.2,1.2-1,2.4-2,2C48.8,76,50,72.7,50.9,72.4z M47.5,75.9c0.1,0,0.1,0,0.2,0c0.8,0,1,1,0.8,2c-0.2,1-0.8,2.1-1.7,2
								C45.2,79.6,46.4,76,47.5,75.9z M46.3,74c-1.4-0.1-0.7-3.6,0.8-3.6c0.1,0,0.3,0,0.5,0.1C48.6,71.1,47.6,74.1,46.3,74z
								 M45.7,68.9c-1-0.6-0.1-3,1.3-3c0.1,0,0.2,0,0.3,0C48.2,66.3,46.9,69.4,45.7,68.9z M42.9,71.2c-0.8-0.6,0-2.7,1.1-2.7
								c0.1,0,0.2,0,0.3,0C45.1,69,43.9,71.7,42.9,71.2z M42.9,76.7c-1.1-0.6-0.2-3.3,1.1-3.3c0.1,0,0.2,0,0.3,0
								C45.4,74,44.2,77,42.9,76.7z M42.9,83.3c-1.3-0.7-0.5-3.8,1-3.8c0.1,0,0.3,0,0.5,0.1C45.4,80.1,44.3,83.8,42.9,83.3z
								 M39.3,86.2c-1-0.6-0.1-3.6,1.2-3.6c0.1,0,0.2,0,0.4,0.1C41.6,83,40.7,86.7,39.3,86.2z M39.9,79.1c-0.9-0.6-0.2-3.2,1-3.2
								c0.1,0,0.2,0,0.3,0C42,76.4,41,79.4,39.9,79.1z M39.8,73.4c-0.6-0.5,0.3-2.7,1.1-2.7c0,0,0.1,0,0.1,0
								C42.1,70.9,41.2,74.1,39.8,73.4z M36.8,81.6c-1-0.2-0.2-2.6,0.7-2.6c0,0,0.1,0,0.1,0C38.6,79.5,37.6,81.7,36.8,81.6z
								 M36.8,85.8c0.1,0,0.1,0,0.2,0c0.7,0,0.7,0.8,0.4,1.6c-0.4,1.2-1.4,2.4-1.7,0.8C35.6,87.2,36.3,85.9,36.8,85.8z M33.5,90.8
								c-0.9-0.4-0.3-2.4,0.7-2.4c0.1,0,0.1,0,0.2,0C34.9,88.6,34.2,91.1,33.5,90.8z M34,83.7c-0.6-0.3,0.1-2.3,0.9-2.3
								c0,0,0.1,0,0.1,0C35.6,81.7,34.8,83.9,34,83.7z M35,77.5c-0.6-0.3,0-2.1,0.8-2.1c0.1,0,0.1,0,0.2,0
								C36.4,75.8,35.7,77.8,35,77.5z M37.2,75.7c-0.5-0.3,0.1-2.2,1-2.2c0.1,0,0.1,0,0.2,0C39.1,73.8,38.1,76,37.2,75.7z"/>
						</g>
					</mask>
					
						<linearGradient id="Rectangle_00000178206324181817992660000006963910982288626612_" gradientUnits="userSpaceOnUse" x1="-311.0625" y1="300.4767" x2="-310.0625" y2="300.4767" gradientTransform="matrix(36.0988 0 0 -39.615 11260.9102 11976.4658)">
						<stop  offset="0" style="stop-color:#004B8D"/>
						<stop  offset="0.7" style="stop-color:#0078B5"/>
						<stop  offset="1" style="stop-color:#13B5EA"/>
					</linearGradient>
					
						<rect id="Rectangle" x="31.9" y="53.3" style="mask:url(#mask-2_00000001647735247951646390000012343331958746029479_);fill:url(#Rectangle_00000178206324181817992660000006963910982288626612_);" width="36.1" height="39.6"/>
				</g>
			</g>
		</g>
	</g>
</g>
</svg>
